<?xml version="1.0" standalone="no"?>
<!DOCTYPE svg PUBLIC "-//W3C//DTD SVG 20010904//EN"
 "http://www.w3.org/TR/2001/REC-SVG-20010904/DTD/svg10.dtd">
<svg version="1.0" xmlns="http://www.w3.org/2000/svg"
 width="612.000000pt" height="511.000000pt" viewBox="0 0 612.000000 511.000000"
 preserveAspectRatio="xMidYMid meet">

<g transform="translate(0.000000,511.000000) scale(0.100000,-0.100000)"
fill="#000000" stroke="none">
<path d="M3790 5065 c-86 -18 -140 -38 -228 -85 -307 -166 -469 -454 -393
-699 35 -114 149 -258 307 -391 201 -169 284 -258 319 -341 25 -61 23 -153 -3
-205 -26 -50 -91 -110 -147 -135 -42 -19 -151 -38 -213 -39 -36 0 -38 2 -151
130 -77 87 -134 130 -172 130 -23 0 -32 -8 -48 -38 -26 -50 -48 -161 -62 -311
-7 -66 -15 -121 -19 -121 -4 0 -33 9 -66 21 -32 11 -111 33 -174 49 -63 15
-123 31 -132 34 -10 3 -25 8 -33 11 -12 3 -6 16 25 57 55 72 106 176 120 245
44 209 -62 391 -395 678 -217 187 -246 228 -253 363 -3 64 0 93 13 129 26 66
93 135 165 167 107 48 290 53 409 12 24 -9 48 -16 53 -16 14 0 78 142 78 175
0 46 -32 97 -76 119 -59 32 -225 35 -336 7 -253 -64 -487 -260 -568 -476 -30
-81 -37 -195 -17 -265 37 -126 155 -272 360 -443 191 -160 279 -274 293 -379
15 -112 -58 -229 -179 -284 -59 -28 -69 -29 -197 -29 -122 1 -142 3 -204 27
-39 15 -74 24 -78 22 -5 -3 -20 -30 -33 -60 -13 -30 -30 -54 -39 -54 -59 0
-538 -321 -563 -378 -7 -15 -12 -42 -13 -59 0 -18 -1 -33 -2 -33 -19 1 -192
40 -196 45 -3 3 15 27 41 53 86 88 152 222 167 342 25 196 -88 374 -420 660
-173 149 -222 214 -236 317 -21 160 79 290 252 329 97 21 234 15 319 -14 70
-24 69 -25 114 64 57 113 36 204 -57 247 -67 31 -243 30 -357 -2 -150 -42
-343 -164 -442 -281 -96 -111 -146 -240 -147 -371 -1 -84 0 -89 48 -183 57
-113 167 -236 331 -371 249 -205 321 -336 269 -488 -18 -53 -84 -119 -147
-147 -130 -57 -295 -49 -468 24 -28 12 -79 -102 -79 -175 0 -72 11 -102 51
-139 l32 -29 -28 -33 c-38 -45 -82 -140 -96 -207 -16 -80 -6 -241 21 -325 12
-38 37 -101 55 -140 77 -163 153 -843 114 -1021 -7 -33 -13 -76 -13 -96 -1
-130 220 -227 354 -156 45 24 80 74 80 115 0 27 -25 78 -53 109 -18 20 -19 30
-13 96 8 87 35 192 71 274 36 80 115 214 131 220 7 3 71 -18 141 -45 70 -28
189 -69 263 -93 74 -23 137 -43 138 -45 9 -7 115 -443 133 -548 17 -95 19
-142 15 -235 -4 -64 -7 -134 -9 -156 -2 -53 31 -97 97 -130 88 -44 227 -29
275 28 38 46 31 120 -16 169 l-28 29 1 202 c0 186 3 210 27 301 27 101 89 247
114 267 7 7 44 14 82 17 60 4 71 2 90 -17 24 -24 29 -88 9 -112 -7 -9 -32 -21
-56 -28 -61 -17 -82 -42 -82 -95 0 -60 37 -173 65 -202 124 -124 475 273 475
536 0 114 -68 205 -177 235 -32 9 -64 18 -71 20 -17 6 -6 71 31 173 34 97 22
93 167 48 98 -30 323 -78 455 -96 50 -7 95 -18 102 -24 13 -12 53 -212 79
-391 18 -131 23 -374 10 -471 l-9 -61 41 -41 c93 -93 264 -93 323 1 25 41 19
90 -16 127 -24 25 -26 32 -23 116 l3 88 42 8 c88 15 143 67 143 138 0 33 -8
50 -53 113 -16 23 -17 34 -7 109 11 87 42 204 66 251 12 23 21 27 55 27 82 0
128 -90 78 -154 -11 -14 -30 -26 -42 -26 -36 0 -84 -36 -91 -68 -11 -49 25
-174 61 -214 44 -49 147 -4 256 112 109 116 196 283 197 378 0 32 1 33 31 27
17 -4 54 -14 82 -24 l51 -16 57 -226 c91 -358 114 -528 87 -646 -24 -99 4
-156 97 -199 36 -17 68 -24 113 -24 156 0 229 114 141 222 -32 40 -32 41 -36
177 -8 218 36 431 117 574 29 53 32 55 89 66 67 13 100 5 125 -31 37 -52 11
-107 -61 -127 -84 -23 -101 -83 -58 -206 30 -87 63 -119 113 -111 144 23 344
259 392 465 16 69 8 166 -19 218 -34 67 -72 90 -211 127 -31 9 -66 26 -79 40
-21 22 -22 25 -7 57 9 19 32 61 51 94 19 33 35 68 35 77 0 21 68 58 104 58 92
0 172 97 212 254 15 62 18 65 30 47 21 -30 61 -11 132 63 109 113 267 382 279
475 7 54 -17 91 -142 220 -203 210 -344 300 -419 267 -17 -8 -39 -17 -49 -20
-10 -3 -73 12 -139 35 -163 55 -243 56 -392 4 -114 -39 -134 -42 -176 -20 -27
14 -34 13 -79 -4 -59 -22 -185 -100 -353 -218 -65 -46 -122 -83 -128 -83 -5 0
-10 19 -11 43 0 64 -20 111 -47 115 -16 3 -22 8 -18 19 16 40 28 157 22 206
-19 148 -151 323 -415 552 -201 173 -245 238 -245 360 0 130 68 227 193 277
48 19 74 22 191 22 114 0 144 -4 194 -22 66 -25 61 -27 100 48 59 113 56 184
-11 239 -61 51 -200 65 -343 36z m263 -26 c58 -16 97 -56 104 -107 5 -35 0
-54 -27 -108 -27 -56 -35 -65 -54 -61 -172 41 -223 45 -334 27 -127 -21 -226
-85 -272 -177 -36 -70 -40 -186 -9 -268 18 -49 38 -76 113 -150 50 -50 138
-132 196 -182 166 -143 283 -295 317 -412 18 -62 14 -171 -8 -236 -11 -32 -27
-48 -84 -86 -38 -25 -112 -83 -163 -128 l-93 -82 -82 9 c-45 6 -109 7 -141 5
-53 -5 -61 -4 -77 18 -32 41 -25 49 44 49 148 0 272 66 330 174 17 33 22 58
22 126 0 75 -3 91 -30 140 -34 62 -172 206 -315 325 -127 108 -221 219 -273
323 -38 78 -42 91 -41 161 1 141 59 265 179 387 126 129 277 216 430 249 74
16 217 19 268 4z m-2959 -417 c93 -32 113 -103 61 -212 -27 -56 -32 -61 -55
-56 -129 30 -162 35 -210 36 -141 0 -269 -42 -338 -113 -62 -63 -86 -125 -86
-222 0 -138 46 -208 243 -375 269 -227 401 -403 417 -555 13 -128 -50 -283
-165 -407 l-65 -71 -96 7 c-188 13 -380 -27 -499 -104 -34 -22 -66 -40 -71
-40 -22 0 -69 62 -75 99 -7 43 13 131 38 165 13 18 15 18 78 -5 56 -21 81 -24
204 -24 123 1 147 4 200 24 86 34 158 107 180 185 46 157 -32 296 -278 499
-177 146 -290 275 -345 395 -50 110 -29 280 51 407 86 137 271 284 427 340
127 46 295 58 384 27z m4200 -1157 c107 -39 158 -43 210 -18 34 16 36 15 88
-10 74 -37 197 -138 307 -252 103 -108 131 -148 131 -185 0 -35 -88 -213 -156
-317 -64 -98 -169 -213 -194 -213 -16 0 -18 20 -24 218 -9 316 -29 473 -57
445 -7 -7 -7 -34 0 -87 6 -43 11 -88 11 -101 l0 -24 -36 24 c-40 27 -90 32
-117 13 -15 -12 -57 -99 -57 -119 0 -18 29 -9 35 11 7 22 16 25 32 9 21 -21
67 -6 84 27 l15 31 28 -22 28 -22 0 -144 c1 -337 -86 -549 -224 -549 -34 0
-101 28 -149 62 -13 9 -28 5 -75 -18 -107 -52 -217 -36 -300 44 -69 65 -145
203 -188 340 -31 98 -33 178 -11 333 24 164 35 210 66 271 33 65 34 68 17 68
-20 0 -64 -87 -82 -161 -9 -37 -27 -154 -41 -262 -25 -199 -55 -360 -75 -397
-9 -16 -15 -18 -30 -10 -50 27 -246 283 -329 431 -28 50 -31 64 -31 140 0 53
5 91 13 101 32 40 371 270 462 313 57 26 58 27 96 10 43 -20 87 -15 159 17
128 57 243 58 394 3z m-1264 -208 c0 -2 -17 -19 -37 -38 l-38 -34 34 38 c33
34 41 42 41 34z m-80 -91 c0 -2 -8 -10 -17 -17 -16 -13 -17 -12 -4 4 13 16 21
21 21 13z m-612 -41 c-3 -3 -9 2 -12 12 -6 14 -5 15 5 6 7 -7 10 -15 7 -18z
m-1086 -47 c18 -5 61 -21 95 -34 71 -28 141 -31 184 -8 28 14 33 14 85 -10 74
-34 160 -102 280 -221 129 -129 168 -185 160 -229 -9 -45 -100 -224 -161 -316
-62 -94 -182 -217 -196 -203 -6 6 -14 121 -20 274 -9 268 -23 379 -48 387 -14
5 -13 -34 6 -167 l6 -44 -39 27 c-45 30 -93 34 -122 9 -23 -21 -58 -110 -47
-121 4 -4 14 3 22 14 12 19 18 20 43 11 37 -14 80 4 80 33 0 26 20 26 48 0 21
-19 22 -30 22 -158 0 -280 -62 -486 -162 -538 -46 -24 -117 -14 -179 25 l-51
31 -57 -27 c-80 -40 -176 -40 -243 -1 -85 51 -163 164 -224 328 -51 135 -58
191 -39 328 27 203 45 285 75 340 17 31 24 54 18 58 -13 8 -22 -2 -51 -61 -32
-63 -53 -163 -73 -340 -25 -225 -56 -382 -84 -425 -8 -12 -17 -7 -56 30 -98
95 -256 318 -315 443 -33 72 -45 123 -35 161 10 40 409 316 516 357 39 15 49
15 70 3 39 -21 84 -17 171 17 44 17 101 35 127 39 53 10 146 4 194 -12z m1616
-28 c-13 -22 -27 -40 -31 -40 -9 0 -3 11 27 53 28 39 30 33 4 -13z m1630 -121
c-2 -6 -8 -10 -13 -10 -5 0 -11 4 -13 10 -2 6 4 11 13 11 9 0 15 -5 13 -11z
m-1278 -131 c99 -168 290 -393 327 -386 26 5 58 75 73 162 7 42 16 76 19 76 3
0 14 -28 24 -63 20 -66 75 -184 120 -255 56 -88 154 -161 215 -162 13 0 56
-14 95 -31 47 -21 89 -32 124 -33 66 -1 67 -8 8 -106 -51 -85 -57 -125 -22
-157 32 -30 55 -40 132 -58 38 -8 84 -27 102 -41 137 -105 86 -362 -115 -576
-110 -117 -194 -156 -235 -110 -24 26 -57 128 -57 173 0 44 35 79 80 79 76 0
100 137 33 190 -21 16 -40 21 -83 20 -30 -1 -59 -1 -63 -1 -4 1 12 29 36 64
69 96 121 207 97 207 -6 0 -25 -30 -41 -66 -17 -36 -68 -122 -114 -190 -125
-185 -165 -304 -186 -539 -13 -156 -1 -295 30 -329 85 -94 28 -190 -112 -189
-109 1 -209 78 -191 148 4 17 8 98 8 180 0 169 -15 252 -102 580 l-48 180 -88
30 -89 30 -19 53 c-35 95 -71 120 -234 161 -23 6 -53 22 -69 36 -33 32 -30 55
23 139 33 52 43 61 85 73 146 42 249 292 217 525 -6 46 -20 103 -31 128 -15
34 -19 56 -14 93 4 26 10 45 14 43 4 -3 27 -38 51 -78z m-856 -123 c40 -26 68
-108 74 -211 l5 -91 61 1 c33 0 77 -2 97 -7 l35 -7 18 77 c32 134 77 203 143
219 32 9 117 -26 121 -49 3 -14 -4 -13 -47 10 -28 14 -54 24 -56 21 -3 -3 -1
-18 5 -33 11 -30 4 -91 -13 -102 -17 -10 -47 37 -47 74 0 31 -2 34 -16 22 -36
-30 -83 -168 -84 -245 0 -38 -29 -77 -82 -111 -39 -24 -40 -26 -35 -69 9 -83
37 -93 117 -39 58 39 82 39 35 0 -74 -60 -133 -68 -158 -20 l-13 26 -24 -26
c-39 -41 -90 -27 -150 42 -47 53 -22 52 32 -2 25 -25 54 -45 65 -45 28 0 53
31 60 73 5 33 1 40 -43 84 l-48 48 -1 120 c0 93 -5 130 -19 163 -20 46 -36 55
-36 18 0 -28 -35 -76 -56 -76 -19 0 -18 62 2 102 l16 30 -34 -5 c-18 -3 -43
-8 -55 -12 -15 -5 -23 -3 -23 4 0 30 115 41 154 16z m-2364 -74 c159 -32 147
-25 185 -105 87 -183 333 -496 390 -496 21 0 51 68 70 161 9 40 17 75 19 77 2
2 14 -27 26 -65 32 -96 114 -252 165 -310 47 -54 119 -97 180 -108 22 -3 63
-17 90 -31 32 -15 72 -25 110 -27 54 -2 60 -5 58 -24 -1 -11 -20 -49 -42 -84
-50 -81 -58 -112 -37 -144 21 -32 55 -48 145 -70 204 -49 239 -240 90 -492
-42 -72 -181 -214 -232 -237 -58 -27 -98 -18 -119 24 -31 63 -48 147 -37 179
10 29 49 51 91 51 27 0 58 57 58 108 0 37 -5 49 -32 74 -30 28 -37 30 -95 26
-35 -2 -63 -2 -63 0 0 3 20 32 44 66 35 49 106 185 106 202 0 2 -6 4 -14 4 -7
0 -24 -26 -37 -57 -13 -32 -58 -110 -100 -173 -42 -63 -90 -143 -108 -177 -73
-145 -107 -343 -98 -561 5 -133 6 -135 36 -166 39 -40 47 -75 27 -115 -29 -55
-108 -79 -197 -60 -42 9 -64 21 -98 55 -42 43 -43 45 -35 87 5 23 8 103 8 177
0 152 -15 238 -90 522 -72 274 -56 244 -138 268 -104 31 -319 108 -411 147
-44 18 -82 33 -86 33 -10 0 -107 -163 -143 -242 -38 -82 -72 -210 -82 -310 -6
-66 -5 -69 25 -103 52 -59 53 -115 5 -160 -49 -45 -165 -51 -242 -11 -39 20
-92 76 -99 105 -3 13 0 47 8 75 18 71 16 355 -5 531 -9 77 -30 217 -46 311
-25 141 -37 185 -69 255 -66 142 -90 274 -71 394 35 222 204 374 463 416 81
13 321 2 427 -20z m1522 -86 c0 -5 -5 -11 -11 -13 -6 -2 -11 4 -11 13 0 9 5
15 11 13 6 -2 11 -8 11 -13z m660 -79 c51 -19 100 -36 108 -39 12 -4 12 -6 -2
-6 -20 -1 -189 58 -202 70 -16 15 -1 11 96 -25z m40 -53 c43 -9 78 -19 78 -23
0 -9 -156 22 -166 33 -11 10 1 9 88 -10z m723 6 c-22 -4 -51 -8 -65 -7 -35 1
34 15 75 16 25 0 23 -2 -10 -9z m-102 -16 c-7 -2 -21 -2 -30 0 -10 3 -4 5 12
5 17 0 24 -2 18 -5z m-544 -39 c14 -13 -21 -15 -123 -9 -64 4 -116 12 -116 17
0 9 229 1 239 -8z m621 6 c0 -6 -30 -9 -72 -8 -67 1 -69 2 -28 8 70 11 100 11
100 0z m-82 -47 c-10 -2 -26 -2 -35 0 -10 3 -2 5 17 5 19 0 27 -2 18 -5z m132
-13 c10 -7 -2 -8 -40 -4 -30 4 -57 8 -59 10 -10 9 86 3 99 -6z m1310 -92 l52
-32 -39 -14 c-41 -14 -108 -11 -158 8 l-30 12 60 28 c33 16 61 29 62 29 1 1
25 -13 53 -31z m-2933 -443 c-11 -33 -171 -30 -210 5 -4 3 21 17 55 31 l63 25
47 -26 c26 -14 46 -29 45 -35z m1288 -267 c-24 -59 -47 -161 -55 -248 l-8 -85
34 -38 c26 -28 34 -46 34 -75 0 -64 -52 -112 -121 -112 l-32 0 6 58 c20 190
29 348 24 424 l-6 86 47 10 c26 5 57 10 69 11 21 1 21 0 8 -31z"/>
<path d="M4801 2954 c-17 -14 -31 -32 -31 -40 0 -19 14 -18 30 2 12 13 15 11
26 -15 15 -35 51 -48 85 -31 19 11 24 9 40 -11 10 -13 21 -20 25 -17 10 11
-25 100 -48 121 -31 26 -90 22 -127 -9z m109 -15 c0 -5 -7 -9 -15 -9 -15 0
-20 12 -9 23 8 8 24 -1 24 -14z"/>
<path d="M5127 2524 c-69 -30 -60 -104 13 -104 36 0 40 -3 40 -25 0 -27 31
-65 54 -65 35 0 46 13 46 52 l0 40 45 -6 c41 -7 46 -5 54 16 11 30 0 58 -32
82 -36 27 -167 33 -220 10z"/>
<path d="M1840 2554 c-33 -22 -51 -45 -44 -56 3 -5 17 -2 30 7 23 15 24 14 24
-5 0 -11 11 -27 25 -36 24 -15 38 -15 77 1 11 4 18 0 23 -14 5 -18 35 -31 35
-16 0 18 -44 111 -58 121 -24 19 -83 17 -112 -2z m98 -25 c-2 -6 -8 -10 -13
-10 -5 0 -11 4 -13 10 -2 6 4 11 13 11 9 0 15 -5 13 -11z"/>
<path d="M2179 2121 c-52 -16 -69 -31 -69 -60 0 -37 23 -56 66 -53 31 2 34 0
34 -26 0 -33 27 -62 56 -62 29 0 44 20 44 58 l0 34 41 -7 c46 -8 59 2 59 46 0
30 -22 52 -69 68 -38 12 -123 13 -162 2z"/>
<path d="M3322 2627 c-15 -35 -15 -57 -2 -57 12 0 23 42 17 67 -3 15 -6 13
-15 -10z"/>
<path d="M3780 2581 c0 -22 5 -43 10 -46 6 -4 10 10 10 34 0 22 -4 43 -10 46
-6 4 -10 -10 -10 -34z"/>
</g>
</svg>
